<svg width="149" height="212" viewBox="0 0 149 212" fill="none" xmlns="http://www.w3.org/2000/svg">
<rect width="148.75" height="210.5" transform="translate(0.125 0.75)" fill="black"/>
<rect x="9.375" y="15" width="53.25" height="53.25" rx="3" fill="white"/>
<path d="M36.001 40.9249C33.8762 40.9249 32.1323 40.244 30.7692 38.882C29.4065 37.5201 28.7252 35.7765 28.7252 33.6513C28.7252 31.5121 29.4062 29.7646 30.7681 28.409C32.13 27.0533 33.8736 26.3755 35.9988 26.3755C38.1236 26.3755 39.8676 27.0529 41.2306 28.4079C42.5933 29.7628 43.2746 31.5099 43.2746 33.6491C43.2746 35.7739 42.5937 37.5179 41.2317 38.8809C39.8698 40.2436 38.1262 40.9249 36.001 40.9249ZM19.5129 57.6172V53.508C19.5129 52.3169 19.8258 51.2869 20.4515 50.4179C21.0772 49.5492 21.8914 48.8817 22.8943 48.4154C25.2173 47.3937 27.4505 46.6177 29.5938 46.0874C31.7368 45.5575 33.8723 45.2925 36.0005 45.2925C38.1283 45.2925 40.2588 45.5584 42.3921 46.0902C44.5251 46.6223 46.7553 47.4 49.0828 48.4232C50.1019 48.884 50.924 49.5501 51.5489 50.4217C52.1742 51.2937 52.4869 52.3269 52.4869 53.5213V57.6172H19.5129Z" fill="black"/>
<rect x="75.125" y="23" width="61" height="6" rx="3" fill="white"/>
<rect x="75.125" y="39" width="61" height="6" rx="3" fill="white"/>
<rect x="75.125" y="55" width="61" height="6" rx="3" fill="white"/>
<rect x="9.375" y="86.25" width="80" height="6" rx="3" fill="white"/>
<rect x="9.375" y="107.25" width="80" height="6" rx="3" fill="white"/>
<rect x="9.375" y="128.25" width="80" height="6" rx="3" fill="white"/>
<rect x="9.375" y="149.25" width="80" height="6" rx="3" fill="white"/>
<rect x="9.375" y="170.25" width="80" height="6" rx="3" fill="white"/>
<rect x="9.375" y="191.25" width="80" height="6" rx="3" fill="white"/>
<rect x="101.375" y="86.25" width="38.5" height="6" rx="3" fill="white"/>
<rect x="101.375" y="107.25" width="38.5" height="6" rx="3" fill="white"/>
<rect x="101.375" y="128.25" width="38.5" height="6" rx="3" fill="white"/>
<rect x="101.375" y="149.25" width="38.5" height="6" rx="3" fill="white"/>
<rect x="101.375" y="170.25" width="38.5" height="6" rx="3" fill="white"/>
<rect x="101.375" y="191.25" width="38.5" height="6" rx="3" fill="white"/>
</svg>
